# xmcd
#
# Track frame offsets:
#	150
#	12778
#	26319
#	39653
#	54599
#	70113
#	82996
#	96320
#	114703
#	129391
#
# Disc length: 1903 seconds
#
# Revision: 2
# Processed by: cddbd v1.5.2PL0 Copyright (c) Steve Scherf et al.
# Submitted via: EasyCDDAExtractor 12.0.4.1
#
DISCID=78076d0a
DTITLE=Johnny Cash - Water From The Wells Of Home
DYEAR=1988
DGENRE=Country
TTITLE0=Ballad of a Teenage Queen
TTITLE1=As Long As I Live
TTITLE2=Where Did We Go Right
TTITLE3=The Last of the Drifters
TTITLE4=Call Me the Breeze
TTITLE5=That Old Wheel
TTITLE6=Sweeter Than the Flowers
TTITLE7=A Croft in Clachan
TTITLE8=The Moon Over Jamaica
TTITLE9=Water from the Wells of Home
EXTD=YEAR: 1988
EXTT0=
EXTT1=
EXTT2=
EXTT3=
EXTT4=
EXTT5=
EXTT6=
EXTT7=
EXTT8=
EXTT9=
PLAYORDER=
